<svg xmlns="http://www.w3.org/2000/svg" viewBox="0 0 512 512" role="img" aria-label="RealiMeali">
<defs>
  <linearGradient id="tile" x1="0" y1="0" x2="1" y2="1"><stop offset="0" stop-color="#FFF8ED"/><stop offset="1" stop-color="#F9E6CF"/></linearGradient>
  <linearGradient id="bowl" x1="0" y1="0" x2="1" y2="1"><stop offset="0" stop-color="#FFB52E"/><stop offset=".45" stop-color="#F76B20"/><stop offset="1" stop-color="#C92F24"/></linearGradient>
  <linearGradient id="leaf" x1="0" y1="0" x2="1" y2="1"><stop offset="0" stop-color="#9AD32F"/><stop offset="1" stop-color="#2F7D32"/></linearGradient>
  <linearGradient id="accent" x1="0" y1="0" x2="1" y2="1"><stop offset="0" stop-color="#FFB52E"/><stop offset="1" stop-color="#F15A24"/></linearGradient>
</defs>
<rect x="8" y="8" width="496" height="496" rx="104" fill="url(#tile)"/>
<path d="M91 259c8 112 78 181 165 181s157-69 165-181c-49 35-104 53-165 53S140 294 91 259Z" fill="url(#bowl)"/>
<path d="M92 259c47 32 102 48 164 48s117-16 164-48c-6 22-10 38-18 51-42 26-91 39-146 39s-104-13-146-39c-8-13-12-29-18-51Z" fill="#FCEBD7" opacity=".9"/>
<path d="M139 248c-2-64 31-112 88-137 7 58-16 104-88 137Z" fill="url(#leaf)"/>
<path d="M169 229c16-38 35-67 60-91" fill="none" stroke="#FCEBD7" stroke-width="8" stroke-linecap="round"/>
<path d="M292 217c-3-47 23-82 69-103 2 42-18 77-69 103Z" fill="url(#accent)"/>
<path d="M116 277c43 29 90 43 140 43s97-14 140-43" fill="none" stroke="#FF9A24" stroke-width="10" stroke-linecap="round" opacity=".65"/>
</svg>